{"title":"Look Back in Anger (1958) - Tony Richardson","uid":10234794,"size":1676228657,"categoryP":"video","categoryS":"movies","magnet":"?xt=urn:btih:196048e46ab1fcee8cab347bad18090677bc9dc0&amp;dn=Look+Back+in+Anger+%281958%29+-+Tony+Richardson&amp;tr=udp%3A%2F%2Ftracker.openbittorrent.com%3A80&amp;tr=udp%3A%2F%2Fopen.demonii.com%3A1337&amp;tr=udp%3A%2F%2Ftracker.coppersurfer.tk%3A6969&amp;tr=udp%3A%2F%2Fexodus.desync.com%3A6969","seeders":2,"leechers":0,"uploader":"mariopan","files":1,"time":1401165588,"description":"Archetypal British &quot;angry young man&quot; Jimmy Porter (Richard Burton) is a college-educated bloke who can't seem to get any better job than working in a candy store. Jimmy's relationship with his wife Alison (Mary Ure) alternates between hugs and kisses when he's feeling good and verbal abuse when he's down on himself, which is often. Alison's best friend Helena Charles (Claire Bloom) advises Alison to escape her injurious marriage. Left with no one for a punching bag, Jimmy romances Helena. Having suffered a miscarriage, Alison returns, and Helena walks out of Jimmy's life. In keeping with its depiction of the dead-end existence of most of England's working poor in the late 1950s, nothing is truly resolved in Look Back in Anger. Playwright John Osborne (at that time married to Mary Ure) uses Jimmy Porter as a spokesman for Osborne's own spleen-venting harangues against the British government and class system. Not only did Look Back in Anger spawn a new genre of British social-protest films, but it also inspired two remakes, both filmed for television.\n\nSubtitles in MKV file.\n\nGeneral\n\nFormat                                   : Matroska\nFormat version                           : Version 4 / Version 2\nFile size                                : 1.56 GiB\nDuration                                 : 1h 39mn\nOverall bit rate                         : 2 249 Kbps\nEncoded date                             : UTC 2014-05-25 21:12:05\nWriting application                      : mkvmerge v6.9.1 ('Blue Panther') 32bit built on Apr 18 2014 18:15:44\nWriting library                          : libebml v1.3.0 + libmatroska v1.4.1\n\nVideo\nID                                       : 1\nFormat                                   : AVC\nFormat/Info                              : Advanced Video Codec\nFormat profile                           : &lt;a class=&quot;__cf_email__&quot; href=&quot;/cdn-cgi/l/email-protection&quot; data-cfemail=&quot;da92b3bdb29a96eef4ea&quot;&gt;[email&amp;#160;protected]&lt;/a&gt;&lt;script data-cfhash='f9e31' type=&quot;text/javascript&quot;&gt;\n/* &lt;![CDATA[ */!function(){try{var t=&quot;currentScript&quot;in document?document.currentScript:function(){for(var t=document.getElementsByTagName(&quot;script&quot;),e=t.length;e--;)if(t[e].getAttribute(&quot;data-cfhash&quot;))return t[e]}();if(t&amp;&amp;t.previousSibling){var e,r,n,i,c=t.previousSibling,a=c.getAttribute(&quot;data-cfemail&quot;);if(a){for(e=&quot;&quot;,r=parseInt(a.substr(0,2),16),n=2;a.length-n;n+=2)i=parseInt(a.substr(n,2),16)^r,e+=String.fromCharCode(i);e=document.createTextNode(e),c.parentNode.replaceChild(e,c)}t.parentNode.removeChild(t);}}catch(u){}}()/* ]]&gt; */&lt;/script&gt;\nFormat settings, CABAC                   : Yes\nFormat settings, ReFrames                : 6 frames\nCodec ID                                 : V_MPEG4/ISO/AVC\nDuration                                 : 1h 39mn\nBit rate                                 : 2 050 Kbps\nWidth                                    : 720 pixels\nHeight                                   : 442 pixels\nDisplay aspect ratio                     : 1.629\nFrame rate mode                          : Constant\nFrame rate                               : 23.976 fps\nColor space                              : YUV\nChroma subsampling                       : 4:2:0\nBit depth                                : 8 bits\nScan type                                : Progressive\nBits/(Pixel*Frame)                       : 0.269\nStream size                              : 1.40 GiB (89%)\nWriting library                          : x264 core 130 r2273 b3065e6\nEncoding settings                        : cabac=1 / ref=6 / deblock=1:-3:-3 / analyse=0x3:0x133 / me=umh / subme=10 / psy=1 / psy_rd=1.00:0.20 / mixed_ref=1 / me_range=28 / chroma_me=1 / trellis=2 / 8x8dct=1 / cqm=0 / deadzone=6,6 / fast_pskip=1 / chroma_qp_offset=-3 / threads=18 / lookahead_threads=2 / sliced_threads=0 / nr=0 / decimate=0 / interlaced=0 / bluray_compat=0 / constrained_intra=0 / bframes=5 / b_pyramid=2 / b_adapt=2 / b_bias=0 / direct=3 / weightb=1 / open_gop=0 / weightp=2 / keyint=240 / keyint_min=24 / scenecut=40 / intra_refresh=0 / rc_lookahead=50 / rc=2pass / mbtree=1 / bitrate=2050 / ratetol=1.0 / qcomp=0.80 / qpmin=0 / qpmax=69 / qpstep=4 / cplxblur=20.0 / qblur=0.5 / vbv_maxrate=25000 / vbv_bufsize=31250 / nal_hrd=none / ip_ratio=1.10 / aq=1:0.50\nLanguage                                 : English\nDefault                                  : Yes\nForced                                   : No\nColor primaries                          : BT.601 NTSC\nTransfer characteristics                 : BT.709\nMatrix coefficients                      : BT.601\n\nAudio\nID                                       : 2\nFormat                                   : AC-3\nFormat/Info                              : Audio Coding 3\nMode extension                           : CM (complete main)\nFormat settings, Endianness              : Big\nCodec ID                                 : A_AC3\nDuration                                 : 1h 39mn\nBit rate mode                            : Constant\nBit rate                                 : 192 Kbps\nChannel(s)                               : 2 channels\nChannel positions                        : Front: L R\nSampling rate                            : 48.0 KHz\nBit depth                                : 16 bits\nCompression mode                         : Lossy\nStream size                              : 136 MiB (9%)\nLanguage                                 : English\nDefault                                  : Yes\nForced                                   : No\n\nText #1\nID                                       : 3\nFormat                                   : VobSub\nMuxing mode                              : zlib\nCodec ID                                 : S_VOBSUB\nCodec ID/Info                            : The same subtitle format used on DVDs\nLanguage                                 : Portuguese\nDefault                                  : No\nForced                                   : No\n\nText #2\nID                                       : 4\nFormat                                   : VobSub\nMuxing mode                              : zlib\nCodec ID                                 : S_VOBSUB\nCodec ID/Info                            : The same subtitle format used on DVDs\nLanguage                                 : Spanish\nDefault                                  : No\nForced                                   : No\n\nText #3\nID                                       : 5\nFormat                                   : UTF-8\nCodec ID                                 : S_TEXT/UTF8\nCodec ID/Info                            : UTF-8 Plain Text\nLanguage                                 : English\nDefault                                  : No\nForced                                   : No\n\nMenu\n00:00:00.000                             : en:Chapter 1\n00:05:10.393                             : en:Chapter 2\n00:15:29.303                             : en:Chapter 3\n00:27:41.618                             : en:Chapter 4\n00:47:44.278                             : en:Chapter 5\n01:15:03.624                             : en:Chapter 6\n01:38:24.815                             : en:Chapter 7","torrent":{"xt":"urn:btih:196048e46ab1fcee8cab347bad18090677bc9dc0","amp;dn":"Look+Back+in+Anger+%281958%29+-+Tony+Richardson","amp;tr":["udp%3A%2F%2Ftracker.openbittorrent.com%3A80","udp%3A%2F%2Fopen.demonii.com%3A1337","udp%3A%2F%2Ftracker.coppersurfer.tk%3A6969","udp%3A%2F%2Fexodus.desync.com%3A6969"],"infoHash":"196048e46ab1fcee8cab347bad18090677bc9dc0","infoHashBuffer":{"type":"Buffer","data":[25,96,72,228,106,177,252,238,140,171,52,123,173,24,9,6,119,188,157,192]},"announce":[],"urlList":[]}}